<svg width="1159" height="1283" viewBox="0 0 1159 1283" fill="none" xmlns="http://www.w3.org/2000/svg">
<g filter="url(#filter0_d)">
<path d="M572.026 0H4V462.081V860H572.026H1155V462.081V0H572.026Z" fill="#3F3D56"/>
<path d="M279.248 65.9753H270.725V88.3132H279.248V65.9753Z" fill="#00B0FF"/>
<path d="M308.226 60.3909H299.703V82.7288H308.226V60.3909Z" fill="#00B0FF"/>
<path d="M323.567 60.3909H315.044V82.7288H323.567V60.3909Z" fill="#00B0FF"/>
<path d="M323.567 127.404H315.044V149.742H323.567V127.404Z" fill="#00B0FF"/>
<path d="M340.612 93.8977H332.09V116.236H340.612V93.8977Z" fill="#00B0FF"/>
<path d="M340.612 130.197H332.09V152.535H340.612V130.197Z" fill="#00B0FF"/>
<path d="M323.567 200.002H315.044V222.34H323.567V200.002Z" fill="#00B0FF"/>
<path d="M340.612 236.301H332.09V258.639H340.612V236.301Z" fill="#00B0FF"/>
<path d="M323.567 373.121H315.044V395.459H323.567V373.121Z" fill="#00B0FF"/>
<path d="M308.226 236.301H299.703V258.639H308.226V236.301Z" fill="#00B0FF"/>
<path d="M279.248 102.274H270.725V124.612H279.248V102.274Z" fill="#00B0FF"/>
<path d="M279.248 451.303H270.725V473.641H279.248V451.303Z" fill="#00B0FF"/>
<path d="M279.248 523.901H270.725V546.239H279.248V523.901Z" fill="#00B0FF"/>
<path d="M279.248 560.2H270.725V582.538H279.248V560.2Z" fill="#00B0FF"/>
<path d="M279.248 141.366H267.316V144.158H279.248V141.366Z" fill="#00B0FF"/>
<path d="M325.271 174.872H313.339V177.665H325.271V174.872Z" fill="#00B0FF"/>
<path d="M279.248 320.068H267.316V322.861H279.248V320.068Z" fill="#00B0FF"/>
<path d="M279.248 350.783H267.316V353.575H279.248V350.783Z" fill="#00B0FF"/>
<path d="M325.271 529.486H313.339V532.278H325.271V529.486Z" fill="#00B0FF"/>
<path d="M311.635 596.499H299.703V599.291H311.635V596.499Z" fill="#00B0FF"/>
<path d="M270.725 166.496V172.08H274.133V183.249H270.725V188.833H279.248V166.496H270.725Z" fill="#00B0FF"/>
<path d="M299.703 127.405V132.989H303.112V144.158H299.703V149.742H308.226V127.405H299.703Z" fill="#00B0FF"/>
<path d="M332.09 163.703V169.288H335.499V180.458H332.09V186.041H340.613V163.703H332.09Z" fill="#00B0FF"/>
<path d="M332.09 272.601V278.185H335.499V289.354H332.09V294.938H340.613V272.601H332.09Z" fill="#00B0FF"/>
<path d="M332.09 308.899V314.484H335.499V325.654H332.09V331.237H340.613V308.899H332.09Z" fill="#00B0FF"/>
<path d="M332.09 197.21V202.794H335.499V213.963H332.09V219.549H340.613V197.21H332.09Z" fill="#00B0FF"/>
<path d="M315.043 93.8975V99.483H318.453V110.65H315.043V116.236H323.567V93.8975H315.043Z" fill="#00B0FF"/>
<path d="M323.567 272.6H315.044V294.938H323.567V272.6Z" fill="#00B0FF"/>
<path d="M323.567 339.614H315.044V361.952H323.567V339.614Z" fill="#00B0FF"/>
<path d="M315.043 306.107V311.691H318.453V322.86H315.043V328.445H323.567V306.107H315.043Z" fill="#00B0FF"/>
<path d="M299.703 163.703V169.288H303.112V180.458H299.703V186.041H308.226V163.703H299.703Z" fill="#00B0FF"/>
<path d="M299.703 200.002V205.588H303.112V216.755H299.703V222.341H308.226V200.002H299.703Z" fill="#00B0FF"/>
<path d="M308.226 308.899H299.703V331.237H308.226V308.899Z" fill="#00B0FF"/>
<path d="M299.703 272.601V278.185H303.112V289.354H299.703V294.938H308.226V272.601H299.703Z" fill="#00B0FF"/>
<path d="M308.226 381.497H299.703V403.835H308.226V381.497Z" fill="#00B0FF"/>
<path d="M299.703 345.198V350.782H303.112V361.951H299.703V367.537H308.226V345.198H299.703Z" fill="#00B0FF"/>
<path d="M308.226 454.095H299.703V476.433H308.226V454.095Z" fill="#00B0FF"/>
<path d="M323.567 448.511H315.044V470.849H323.567V448.511Z" fill="#00B0FF"/>
<path d="M299.703 417.796V423.381H303.112V434.55H299.703V440.134H308.226V417.796H299.703Z" fill="#00B0FF"/>
<path d="M332.09 417.796V423.381H335.499V434.55H332.09V440.134H340.613V417.796H332.09Z" fill="#00B0FF"/>
<path d="M427.546 93.8977H419.023V116.236H427.546V93.8977Z" fill="#00B0FF"/>
<path d="M427.546 130.197H419.023V152.535H427.546V130.197Z" fill="#00B0FF"/>
<path d="M427.546 236.301H419.023V258.639H427.546V236.301Z" fill="#00B0FF"/>
<path d="M419.023 163.703V169.288H422.432V180.458H419.023V186.041H427.545V163.703H419.023Z" fill="#00B0FF"/>
<path d="M419.023 272.601V278.185H422.432V289.354H419.023V294.938H427.545V272.601H419.023Z" fill="#00B0FF"/>
<path d="M419.023 308.899V314.484H422.432V325.654H419.023V331.237H427.545V308.899H419.023Z" fill="#00B0FF"/>
<path d="M419.023 197.21V202.794H422.432V213.963H419.023V219.549H427.545V197.21H419.023Z" fill="#00B0FF"/>
<path d="M419.023 417.796V423.381H422.432V434.55H419.023V440.134H427.545V417.796H419.023Z" fill="#00B0FF"/>
<path d="M308.226 526.693H299.703V549.031H308.226V526.693Z" fill="#00B0FF"/>
<path d="M323.567 484.81H315.044V507.148H323.567V484.81Z" fill="#00B0FF"/>
<path d="M308.226 621.629H299.703V643.967H308.226V621.629Z" fill="#00B0FF"/>
<path d="M323.567 554.616H315.044V576.953H323.567V554.616Z" fill="#00B0FF"/>
<path d="M299.703 490.395V495.978H303.112V507.147H299.703V512.733H308.226V490.395H299.703Z" fill="#00B0FF"/>
<path d="M299.703 660.721V666.305H303.112V677.474H299.703V683.057H308.226V660.721H299.703Z" fill="#00B0FF"/>
<path d="M401.977 60.3909H393.454V82.7288H401.977V60.3909Z" fill="#00B0FF"/>
<path d="M401.977 236.301H393.454V258.639H401.977V236.301Z" fill="#00B0FF"/>
<path d="M405.386 596.499H393.454V599.291H405.386V596.499Z" fill="#00B0FF"/>
<path d="M393.454 127.405V132.989H396.864V144.158H393.454V149.742H401.977V127.405H393.454Z" fill="#00B0FF"/>
<path d="M393.454 163.703V169.288H396.864V180.458H393.454V186.041H401.977V163.703H393.454Z" fill="#00B0FF"/>
<path d="M393.454 200.002V205.588H396.864V216.755H393.454V222.341H401.977V200.002H393.454Z" fill="#00B0FF"/>
<path d="M401.977 308.899H393.454V331.237H401.977V308.899Z" fill="#00B0FF"/>
<path d="M393.454 272.601V278.185H396.864V289.354H393.454V294.938H401.977V272.601H393.454Z" fill="#00B0FF"/>
<path d="M401.977 381.497H393.454V403.835H401.977V381.497Z" fill="#00B0FF"/>
<path d="M393.454 345.198V350.782H396.864V361.951H393.454V367.537H401.977V345.198H393.454Z" fill="#00B0FF"/>
<path d="M401.977 454.095H393.454V476.433H401.977V454.095Z" fill="#00B0FF"/>
<path d="M393.454 417.796V423.381H396.864V434.55H393.454V440.134H401.977V417.796H393.454Z" fill="#00B0FF"/>
<path d="M401.977 526.693H393.454V549.031H401.977V526.693Z" fill="#00B0FF"/>
<path d="M401.977 621.629H393.454V643.967H401.977V621.629Z" fill="#00B0FF"/>
<path d="M393.454 490.395V495.978H396.864V507.147H393.454V512.733H401.977V490.395H393.454Z" fill="#00B0FF"/>
<path d="M393.454 660.721V666.305H396.864V677.474H393.454V683.057H401.977V660.721H393.454Z" fill="#00B0FF"/>
<path d="M442.887 60.3909H434.364V82.7288H442.887V60.3909Z" fill="#00B0FF"/>
<path d="M442.887 236.301H434.364V258.639H442.887V236.301Z" fill="#00B0FF"/>
<path d="M446.296 596.499H434.364V599.291H446.296V596.499Z" fill="#00B0FF"/>
<path d="M434.364 127.405V132.989H437.774V144.158H434.364V149.742H442.887V127.405H434.364Z" fill="#00B0FF"/>
<path d="M434.364 163.703V169.288H437.774V180.458H434.364V186.041H442.887V163.703H434.364Z" fill="#00B0FF"/>
<path d="M434.364 200.002V205.588H437.774V216.755H434.364V222.341H442.887V200.002H434.364Z" fill="#00B0FF"/>
<path d="M442.887 308.899H434.364V331.237H442.887V308.899Z" fill="#00B0FF"/>
<path d="M434.364 272.601V278.185H437.774V289.354H434.364V294.938H442.887V272.601H434.364Z" fill="#00B0FF"/>
<path d="M442.887 381.497H434.364V403.835H442.887V381.497Z" fill="#00B0FF"/>
<path d="M434.364 345.198V350.782H437.774V361.951H434.364V367.537H442.887V345.198H434.364Z" fill="#00B0FF"/>
<path d="M442.887 454.095H434.364V476.433H442.887V454.095Z" fill="#00B0FF"/>
<path d="M434.364 417.796V423.381H437.774V434.55H434.364V440.134H442.887V417.796H434.364Z" fill="#00B0FF"/>
<path d="M442.887 526.693H434.364V549.031H442.887V526.693Z" fill="#00B0FF"/>
<path d="M442.887 621.629H434.364V643.967H442.887V621.629Z" fill="#00B0FF"/>
<path d="M434.364 490.395V495.978H437.774V507.147H434.364V512.733H442.887V490.395H434.364Z" fill="#00B0FF"/>
<path d="M434.364 660.721V666.305H437.774V677.474H434.364V683.057H442.887V660.721H434.364Z" fill="#00B0FF"/>
<path d="M315.043 621.63V627.213H318.453V638.383H315.043V643.966H323.567V621.63H315.043Z" fill="#00B0FF"/>
<path d="M315.043 657.929V663.513H318.453V674.682H315.043V680.266H323.567V657.929H315.043Z" fill="#00B0FF"/>
<path d="M270.725 236.302V241.885H274.133V253.055H270.725V258.64H279.248V236.302H270.725Z" fill="#00B0FF"/>
<path d="M270.725 378.706V384.29H274.133V395.459H270.725V401.043H279.248V378.706H270.725Z" fill="#00B0FF"/>
<path d="M270.725 415.004V420.589H274.133V431.758H270.725V437.342H279.248V415.004H270.725Z" fill="#00B0FF"/>
<path d="M270.725 487.603V493.186H274.133V504.356H270.725V509.939H279.248V487.603H270.725Z" fill="#00B0FF"/>
<path d="M270.725 590.914V596.499H274.133V607.669H270.725V613.252H279.248V590.914H270.725Z" fill="#00B0FF"/>
<path d="M270.725 621.63V627.213H274.133V638.383H270.725V643.966H279.248V621.63H270.725Z" fill="#00B0FF"/>
<path d="M367.886 65.9753H359.363V88.3132H367.886V65.9753Z" fill="#00B0FF"/>
<path d="M367.886 102.274H359.363V124.612H367.886V102.274Z" fill="#00B0FF"/>
<path d="M367.886 141.366H355.954V144.158H367.886V141.366Z" fill="#00B0FF"/>
<path d="M367.886 320.068H355.954V322.861H367.886V320.068Z" fill="#00B0FF"/>
<path d="M367.886 350.783H355.954V353.575H367.886V350.783Z" fill="#00B0FF"/>
<path d="M359.363 166.496V172.08H362.772V183.249H359.363V188.833H367.886V166.496H359.363Z" fill="#00B0FF"/>
<path d="M359.363 236.302V241.885H362.772V253.055H359.363V258.64H367.886V236.302H359.363Z" fill="#00B0FF"/>
<path d="M359.363 378.706V384.29H362.772V395.459H359.363V401.043H367.886V378.706H359.363Z" fill="#00B0FF"/>
<path d="M465.046 308.899H456.524V331.237H465.046V308.899Z" fill="#00B0FF"/>
<path d="M465.046 345.198H456.524V367.536H465.046V345.198Z" fill="#00B0FF"/>
<path d="M465.047 384.29H453.115V387.082H465.047V384.29Z" fill="#00B0FF"/>
<path d="M465.047 562.992H453.115V565.785H465.047V562.992Z" fill="#00B0FF"/>
<path d="M465.047 593.707H453.115V596.499H465.047V593.707Z" fill="#00B0FF"/>
<path d="M456.524 409.42V415.004H459.932V426.173H456.524V431.758H465.047V409.42H456.524Z" fill="#00B0FF"/>
<path d="M456.524 479.225V484.811H459.932V495.978H456.524V501.564H465.047V479.225H456.524Z" fill="#00B0FF"/>
<path d="M456.524 621.63V627.213H459.932V638.383H456.524V643.966H465.047V621.63H456.524Z" fill="#00B0FF"/>
<path d="M492.32 65.9753H483.797V88.3132H492.32V65.9753Z" fill="#00B0FF"/>
<path d="M521.297 60.3909H512.775V82.7288H521.297V60.3909Z" fill="#00B0FF"/>
<path d="M536.639 60.3909H528.116V82.7288H536.639V60.3909Z" fill="#00B0FF"/>
<path d="M536.639 127.404H528.116V149.742H536.639V127.404Z" fill="#00B0FF"/>
<path d="M553.684 93.8977H545.161V116.236H553.684V93.8977Z" fill="#00B0FF"/>
<path d="M553.684 130.197H545.161V152.535H553.684V130.197Z" fill="#00B0FF"/>
<path d="M536.639 200.002H528.116V222.34H536.639V200.002Z" fill="#00B0FF"/>
<path d="M553.684 236.301H545.161V258.639H553.684V236.301Z" fill="#00B0FF"/>
<path d="M536.639 373.121H528.116V395.459H536.639V373.121Z" fill="#00B0FF"/>
<path d="M521.297 236.301H512.775V258.639H521.297V236.301Z" fill="#00B0FF"/>
<path d="M492.32 102.274H483.797V124.612H492.32V102.274Z" fill="#00B0FF"/>
<path d="M492.32 451.303H483.797V473.641H492.32V451.303Z" fill="#00B0FF"/>
<path d="M492.32 523.901H483.797V546.239H492.32V523.901Z" fill="#00B0FF"/>
<path d="M492.32 560.2H483.797V582.538H492.32V560.2Z" fill="#00B0FF"/>
<path d="M492.32 141.366H480.388V144.158H492.32V141.366Z" fill="#00B0FF"/>
<path d="M538.343 174.872H526.411V177.665H538.343V174.872Z" fill="#00B0FF"/>
<path d="M492.32 320.068H480.388V322.861H492.32V320.068Z" fill="#00B0FF"/>
<path d="M492.32 350.783H480.388V353.575H492.32V350.783Z" fill="#00B0FF"/>
<path d="M538.343 529.486H526.411V532.278H538.343V529.486Z" fill="#00B0FF"/>
<path d="M524.707 596.499H512.775V599.291H524.707V596.499Z" fill="#00B0FF"/>
<path d="M483.797 166.496V172.08H487.206V183.249H483.797V188.833H492.319V166.496H483.797Z" fill="#00B0FF"/>
<path d="M512.775 127.405V132.989H516.183V144.158H512.775V149.742H521.298V127.405H512.775Z" fill="#00B0FF"/>
<path d="M545.162 163.703V169.288H548.57V180.458H545.162V186.041H553.685V163.703H545.162Z" fill="#00B0FF"/>
<path d="M545.162 272.601V278.185H548.57V289.354H545.162V294.938H553.685V272.601H545.162Z" fill="#00B0FF"/>
<path d="M545.162 308.899V314.484H548.57V325.654H545.162V331.237H553.685V308.899H545.162Z" fill="#00B0FF"/>
<path d="M545.162 197.21V202.794H548.57V213.963H545.162V219.549H553.685V197.21H545.162Z" fill="#00B0FF"/>
<path d="M528.116 93.8975V99.483H531.525V110.65H528.116V116.236H536.639V93.8975H528.116Z" fill="#00B0FF"/>
<path d="M536.639 272.6H528.116V294.938H536.639V272.6Z" fill="#00B0FF"/>
<path d="M536.639 339.614H528.116V361.952H536.639V339.614Z" fill="#00B0FF"/>
<path d="M528.116 306.107V311.691H531.525V322.86H528.116V328.445H536.639V306.107H528.116Z" fill="#00B0FF"/>
<path d="M512.775 163.703V169.288H516.183V180.458H512.775V186.041H521.298V163.703H512.775Z" fill="#00B0FF"/>
<path d="M512.775 200.002V205.588H516.183V216.755H512.775V222.341H521.298V200.002H512.775Z" fill="#00B0FF"/>
<path d="M521.297 308.899H512.775V331.237H521.297V308.899Z" fill="#00B0FF"/>
<path d="M512.775 272.601V278.185H516.183V289.354H512.775V294.938H521.298V272.601H512.775Z" fill="#00B0FF"/>
<path d="M521.297 381.497H512.775V403.835H521.297V381.497Z" fill="#00B0FF"/>
<path d="M512.775 345.198V350.782H516.183V361.951H512.775V367.537H521.298V345.198H512.775Z" fill="#00B0FF"/>
<path d="M521.297 454.095H512.775V476.433H521.297V454.095Z" fill="#00B0FF"/>
<path d="M536.639 448.511H528.116V470.849H536.639V448.511Z" fill="#00B0FF"/>
<path d="M512.775 417.796V423.381H516.183V434.55H512.775V440.134H521.298V417.796H512.775Z" fill="#00B0FF"/>
<path d="M545.162 417.796V423.381H548.57V434.55H545.162V440.134H553.685V417.796H545.162Z" fill="#00B0FF"/>
<path d="M640.618 93.8977H632.095V116.236H640.618V93.8977Z" fill="#00B0FF"/>
<path d="M640.618 130.197H632.095V152.535H640.618V130.197Z" fill="#00B0FF"/>
<path d="M640.618 236.301H632.095V258.639H640.618V236.301Z" fill="#00B0FF"/>
<path d="M632.095 163.703V169.288H635.504V180.458H632.095V186.041H640.618V163.703H632.095Z" fill="#00B0FF"/>
<path d="M632.095 272.601V278.185H635.504V289.354H632.095V294.938H640.618V272.601H632.095Z" fill="#00B0FF"/>
<path d="M632.095 308.899V314.484H635.504V325.654H632.095V331.237H640.618V308.899H632.095Z" fill="#00B0FF"/>
<path d="M632.095 197.21V202.794H635.504V213.963H632.095V219.549H640.618V197.21H632.095Z" fill="#00B0FF"/>
<path d="M632.095 417.796V423.381H635.504V434.55H632.095V440.134H640.618V417.796H632.095Z" fill="#00B0FF"/>
<path d="M521.297 526.693H512.775V549.031H521.297V526.693Z" fill="#00B0FF"/>
<path d="M536.639 484.81H528.116V507.148H536.639V484.81Z" fill="#00B0FF"/>
<path d="M521.297 621.629H512.775V643.967H521.297V621.629Z" fill="#00B0FF"/>
<path d="M536.639 554.616H528.116V576.953H536.639V554.616Z" fill="#00B0FF"/>
<path d="M512.775 490.395V495.978H516.183V507.147H512.775V512.733H521.298V490.395H512.775Z" fill="#00B0FF"/>
<path d="M512.775 660.721V666.305H516.183V677.474H512.775V683.057H521.298V660.721H512.775Z" fill="#00B0FF"/>
<path d="M615.049 60.3909H606.526V82.7288H615.049V60.3909Z" fill="#00B0FF"/>
<path d="M615.049 236.301H606.526V258.639H615.049V236.301Z" fill="#00B0FF"/>
<path d="M618.458 596.499H606.526V599.291H618.458V596.499Z" fill="#00B0FF"/>
<path d="M606.526 127.405V132.989H609.936V144.158H606.526V149.742H615.049V127.405H606.526Z" fill="#00B0FF"/>
<path d="M606.526 163.703V169.288H609.936V180.458H606.526V186.041H615.049V163.703H606.526Z" fill="#00B0FF"/>
<path d="M606.526 200.002V205.588H609.936V216.755H606.526V222.341H615.049V200.002H606.526Z" fill="#00B0FF"/>
<path d="M615.049 308.899H606.526V331.237H615.049V308.899Z" fill="#00B0FF"/>
<path d="M606.526 272.601V278.185H609.936V289.354H606.526V294.938H615.049V272.601H606.526Z" fill="#00B0FF"/>
<path d="M615.049 381.497H606.526V403.835H615.049V381.497Z" fill="#00B0FF"/>
<path d="M606.526 345.198V350.782H609.936V361.951H606.526V367.537H615.049V345.198H606.526Z" fill="#00B0FF"/>
<path d="M615.049 454.095H606.526V476.433H615.049V454.095Z" fill="#00B0FF"/>
<path d="M606.526 417.796V423.381H609.936V434.55H606.526V440.134H615.049V417.796H606.526Z" fill="#00B0FF"/>
<path d="M615.049 526.693H606.526V549.031H615.049V526.693Z" fill="#00B0FF"/>
<path d="M615.049 621.629H606.526V643.967H615.049V621.629Z" fill="#00B0FF"/>
<path d="M606.526 490.395V495.978H609.936V507.147H606.526V512.733H615.049V490.395H606.526Z" fill="#00B0FF"/>
<path d="M606.526 660.721V666.305H609.936V677.474H606.526V683.057H615.049V660.721H606.526Z" fill="#00B0FF"/>
<path d="M655.959 60.3909H647.436V82.7288H655.959V60.3909Z" fill="#00B0FF"/>
<path d="M655.959 236.301H647.436V258.639H655.959V236.301Z" fill="#00B0FF"/>
<path d="M659.368 596.499H647.436V599.291H659.368V596.499Z" fill="#00B0FF"/>
<path d="M647.436 127.405V132.989H650.845V144.158H647.436V149.742H655.958V127.405H647.436Z" fill="#00B0FF"/>
<path d="M647.436 163.703V169.288H650.845V180.458H647.436V186.041H655.958V163.703H647.436Z" fill="#00B0FF"/>
<path d="M647.436 200.002V205.588H650.845V216.755H647.436V222.341H655.958V200.002H647.436Z" fill="#00B0FF"/>
<path d="M655.959 308.899H647.436V331.237H655.959V308.899Z" fill="#00B0FF"/>
<path d="M647.436 272.601V278.185H650.845V289.354H647.436V294.938H655.958V272.601H647.436Z" fill="#00B0FF"/>
<path d="M655.959 381.497H647.436V403.835H655.959V381.497Z" fill="#00B0FF"/>
<path d="M647.436 345.198V350.782H650.845V361.951H647.436V367.537H655.958V345.198H647.436Z" fill="#00B0FF"/>
<path d="M655.959 454.095H647.436V476.433H655.959V454.095Z" fill="#00B0FF"/>
<path d="M647.436 417.796V423.381H650.845V434.55H647.436V440.134H655.958V417.796H647.436Z" fill="#00B0FF"/>
<path d="M655.959 526.693H647.436V549.031H655.959V526.693Z" fill="#00B0FF"/>
<path d="M655.959 621.629H647.436V643.967H655.959V621.629Z" fill="#00B0FF"/>
<path d="M647.436 490.395V495.978H650.845V507.147H647.436V512.733H655.958V490.395H647.436Z" fill="#00B0FF"/>
<path d="M647.436 660.721V666.305H650.845V677.474H647.436V683.057H655.958V660.721H647.436Z" fill="#00B0FF"/>
<path d="M528.116 621.63V627.213H531.525V638.383H528.116V643.966H536.639V621.63H528.116Z" fill="#00B0FF"/>
<path d="M528.116 657.929V663.513H531.525V674.682H528.116V680.266H536.639V657.929H528.116Z" fill="#00B0FF"/>
<path d="M483.797 236.302V241.885H487.206V253.055H483.797V258.64H492.319V236.302H483.797Z" fill="#00B0FF"/>
<path d="M483.797 378.706V384.29H487.206V395.459H483.797V401.043H492.319V378.706H483.797Z" fill="#00B0FF"/>
<path d="M483.797 415.004V420.589H487.206V431.758H483.797V437.342H492.319V415.004H483.797Z" fill="#00B0FF"/>
<path d="M483.797 487.603V493.186H487.206V504.356H483.797V509.939H492.319V487.603H483.797Z" fill="#00B0FF"/>
<path d="M483.797 590.914V596.499H487.206V607.669H483.797V613.252H492.319V590.914H483.797Z" fill="#00B0FF"/>
<path d="M483.797 621.63V627.213H487.206V638.383H483.797V643.966H492.319V621.63H483.797Z" fill="#00B0FF"/>
<path d="M580.958 65.9753H572.435V88.3132H580.958V65.9753Z" fill="#00B0FF"/>
<path d="M580.958 102.274H572.435V124.612H580.958V102.274Z" fill="#00B0FF"/>
<path d="M580.958 141.366H569.026V144.158H580.958V141.366Z" fill="#00B0FF"/>
<path d="M580.958 320.068H569.026V322.861H580.958V320.068Z" fill="#00B0FF"/>
<path d="M580.958 350.783H569.026V353.575H580.958V350.783Z" fill="#00B0FF"/>
<path d="M572.435 166.496V172.08H575.844V183.249H572.435V188.833H580.958V166.496H572.435Z" fill="#00B0FF"/>
<path d="M572.435 236.302V241.885H575.844V253.055H572.435V258.64H580.958V236.302H572.435Z" fill="#00B0FF"/>
<path d="M572.435 378.706V384.29H575.844V395.459H572.435V401.043H580.958V378.706H572.435Z" fill="#00B0FF"/>
<path d="M678.118 308.899H669.596V331.237H678.118V308.899Z" fill="#00B0FF"/>
<path d="M678.118 345.198H669.596V367.536H678.118V345.198Z" fill="#00B0FF"/>
<path d="M678.118 384.29H666.186V387.082H678.118V384.29Z" fill="#00B0FF"/>
<path d="M678.118 562.992H666.186V565.785H678.118V562.992Z" fill="#00B0FF"/>
<path d="M678.118 593.707H666.186V596.499H678.118V593.707Z" fill="#00B0FF"/>
<path d="M669.596 409.42V415.004H673.005V426.173H669.596V431.758H678.118V409.42H669.596Z" fill="#00B0FF"/>
<path d="M669.596 479.225V484.811H673.005V495.978H669.596V501.564H678.118V479.225H669.596Z" fill="#00B0FF"/>
<path d="M669.596 621.63V627.213H673.005V638.383H669.596V643.966H678.118V621.63H669.596Z" fill="#00B0FF"/>
<path d="M705.392 65.9753H696.869V88.3132H705.392V65.9753Z" fill="#00B0FF"/>
<path d="M734.37 60.3909H725.846V82.7288H734.37V60.3909Z" fill="#00B0FF"/>
<path d="M749.711 60.3909H741.188V82.7288H749.711V60.3909Z" fill="#00B0FF"/>
<path d="M749.711 127.404H741.188V149.742H749.711V127.404Z" fill="#00B0FF"/>
<path d="M766.756 93.8977H758.233V116.236H766.756V93.8977Z" fill="#00B0FF"/>
<path d="M766.756 130.197H758.233V152.535H766.756V130.197Z" fill="#00B0FF"/>
<path d="M749.711 200.002H741.188V222.34H749.711V200.002Z" fill="#00B0FF"/>
<path d="M766.756 236.301H758.233V258.639H766.756V236.301Z" fill="#00B0FF"/>
<path d="M749.711 373.121H741.188V395.459H749.711V373.121Z" fill="#00B0FF"/>
<path d="M734.37 236.301H725.846V258.639H734.37V236.301Z" fill="#00B0FF"/>
<path d="M705.392 102.274H696.869V124.612H705.392V102.274Z" fill="#00B0FF"/>
<path d="M705.392 451.303H696.869V473.641H705.392V451.303Z" fill="#00B0FF"/>
<path d="M705.392 523.901H696.869V546.239H705.392V523.901Z" fill="#00B0FF"/>
<path d="M705.392 560.2H696.869V582.538H705.392V560.2Z" fill="#00B0FF"/>
<path d="M705.392 141.366H693.46V144.158H705.392V141.366Z" fill="#00B0FF"/>
<path d="M751.415 174.872H739.483V177.665H751.415V174.872Z" fill="#00B0FF"/>
<path d="M705.392 320.068H693.46V322.861H705.392V320.068Z" fill="#00B0FF"/>
<path d="M705.392 350.783H693.46V353.575H705.392V350.783Z" fill="#00B0FF"/>
<path d="M751.415 529.486H739.483V532.278H751.415V529.486Z" fill="#00B0FF"/>
<path d="M737.779 596.499H725.846V599.291H737.779V596.499Z" fill="#00B0FF"/>
<path d="M696.868 166.496V172.08H700.278V183.249H696.868V188.833H705.392V166.496H696.868Z" fill="#00B0FF"/>
<path d="M725.846 127.405V132.989H729.255V144.158H725.846V149.742H734.369V127.405H725.846Z" fill="#00B0FF"/>
<path d="M758.233 163.703V169.288H761.642V180.458H758.233V186.041H766.756V163.703H758.233Z" fill="#00B0FF"/>
<path d="M758.233 272.601V278.185H761.642V289.354H758.233V294.938H766.756V272.601H758.233Z" fill="#00B0FF"/>
<path d="M758.233 308.899V314.484H761.642V325.654H758.233V331.237H766.756V308.899H758.233Z" fill="#00B0FF"/>
<path d="M758.233 197.21V202.794H761.642V213.963H758.233V219.549H766.756V197.21H758.233Z" fill="#00B0FF"/>
<path d="M741.188 93.8975V99.483H744.597V110.65H741.188V116.236H749.711V93.8975H741.188Z" fill="#00B0FF"/>
<path d="M749.711 272.6H741.188V294.938H749.711V272.6Z" fill="#00B0FF"/>
<path d="M749.711 339.614H741.188V361.952H749.711V339.614Z" fill="#00B0FF"/>
<path d="M741.188 306.107V311.691H744.597V322.86H741.188V328.445H749.711V306.107H741.188Z" fill="#00B0FF"/>
<path d="M725.846 163.703V169.288H729.255V180.458H725.846V186.041H734.369V163.703H725.846Z" fill="#00B0FF"/>
<path d="M725.846 200.002V205.588H729.255V216.755H725.846V222.341H734.369V200.002H725.846Z" fill="#00B0FF"/>
<path d="M734.37 308.899H725.846V331.237H734.37V308.899Z" fill="#00B0FF"/>
<path d="M725.846 272.601V278.185H729.255V289.354H725.846V294.938H734.369V272.601H725.846Z" fill="#00B0FF"/>
<path d="M734.37 381.497H725.846V403.835H734.37V381.497Z" fill="#00B0FF"/>
<path d="M725.846 345.198V350.782H729.255V361.951H725.846V367.537H734.369V345.198H725.846Z" fill="#00B0FF"/>
<path d="M734.37 454.095H725.846V476.433H734.37V454.095Z" fill="#00B0FF"/>
<path d="M749.711 448.511H741.188V470.849H749.711V448.511Z" fill="#00B0FF"/>
<path d="M725.846 417.796V423.381H729.255V434.55H725.846V440.134H734.369V417.796H725.846Z" fill="#00B0FF"/>
<path d="M758.233 417.796V423.381H761.642V434.55H758.233V440.134H766.756V417.796H758.233Z" fill="#00B0FF"/>
<path d="M853.69 93.8977H845.167V116.236H853.69V93.8977Z" fill="#00B0FF"/>
<path d="M853.69 130.197H845.167V152.535H853.69V130.197Z" fill="#00B0FF"/>
<path d="M853.69 236.301H845.167V258.639H853.69V236.301Z" fill="#00B0FF"/>
<path d="M845.167 163.703V169.288H848.576V180.458H845.167V186.041H853.69V163.703H845.167Z" fill="#00B0FF"/>
<path d="M845.167 272.601V278.185H848.576V289.354H845.167V294.938H853.69V272.601H845.167Z" fill="#00B0FF"/>
<path d="M845.167 308.899V314.484H848.576V325.654H845.167V331.237H853.69V308.899H845.167Z" fill="#00B0FF"/>
<path d="M845.167 197.21V202.794H848.576V213.963H845.167V219.549H853.69V197.21H845.167Z" fill="#00B0FF"/>
<path d="M845.167 417.796V423.381H848.576V434.55H845.167V440.134H853.69V417.796H845.167Z" fill="#00B0FF"/>
<path d="M734.37 526.693H725.846V549.031H734.37V526.693Z" fill="#00B0FF"/>
<path d="M749.711 484.81H741.188V507.148H749.711V484.81Z" fill="#00B0FF"/>
<path d="M734.37 621.629H725.846V643.967H734.37V621.629Z" fill="#00B0FF"/>
<path d="M749.711 554.616H741.188V576.953H749.711V554.616Z" fill="#00B0FF"/>
<path d="M725.846 490.395V495.978H729.255V507.147H725.846V512.733H734.369V490.395H725.846Z" fill="#00B0FF"/>
<path d="M725.846 660.721V666.305H729.255V677.474H725.846V683.057H734.369V660.721H725.846Z" fill="#00B0FF"/>
<path d="M828.121 60.3909H819.598V82.7288H828.121V60.3909Z" fill="#00B0FF"/>
<path d="M828.121 236.301H819.598V258.639H828.121V236.301Z" fill="#00B0FF"/>
<path d="M831.53 596.499H819.598V599.291H831.53V596.499Z" fill="#00B0FF"/>
<path d="M819.599 127.405V132.989H823.007V144.158H819.599V149.742H828.122V127.405H819.599Z" fill="#00B0FF"/>
<path d="M819.599 163.703V169.288H823.007V180.458H819.599V186.041H828.122V163.703H819.599Z" fill="#00B0FF"/>
<path d="M819.599 200.002V205.588H823.007V216.755H819.599V222.341H828.122V200.002H819.599Z" fill="#00B0FF"/>
<path d="M828.121 308.899H819.598V331.237H828.121V308.899Z" fill="#00B0FF"/>
<path d="M819.599 272.601V278.185H823.007V289.354H819.599V294.938H828.122V272.601H819.599Z" fill="#00B0FF"/>
<path d="M828.121 381.497H819.598V403.835H828.121V381.497Z" fill="#00B0FF"/>
<path d="M819.599 345.198V350.782H823.007V361.951H819.599V367.537H828.122V345.198H819.599Z" fill="#00B0FF"/>
<path d="M828.121 454.095H819.598V476.433H828.121V454.095Z" fill="#00B0FF"/>
<path d="M819.599 417.796V423.381H823.007V434.55H819.599V440.134H828.122V417.796H819.599Z" fill="#00B0FF"/>
<path d="M828.121 526.693H819.598V549.031H828.121V526.693Z" fill="#00B0FF"/>
<path d="M828.121 621.629H819.598V643.967H828.121V621.629Z" fill="#00B0FF"/>
<path d="M819.599 490.395V495.978H823.007V507.147H819.599V512.733H828.122V490.395H819.599Z" fill="#00B0FF"/>
<path d="M819.599 660.721V666.305H823.007V677.474H819.599V683.057H828.122V660.721H819.599Z" fill="#00B0FF"/>
<path d="M869.031 60.3909H860.508V82.7288H869.031V60.3909Z" fill="#00B0FF"/>
<path d="M869.031 236.301H860.508V258.639H869.031V236.301Z" fill="#00B0FF"/>
<path d="M872.44 596.499H860.508V599.291H872.44V596.499Z" fill="#00B0FF"/>
<path d="M860.509 127.405V132.989H863.917V144.158H860.509V149.742H869.031V127.405H860.509Z" fill="#00B0FF"/>
<path d="M860.509 163.703V169.288H863.917V180.458H860.509V186.041H869.031V163.703H860.509Z" fill="#00B0FF"/>
<path d="M860.509 200.002V205.588H863.917V216.755H860.509V222.341H869.031V200.002H860.509Z" fill="#00B0FF"/>
<path d="M869.031 308.899H860.508V331.237H869.031V308.899Z" fill="#00B0FF"/>
<path d="M860.509 272.601V278.185H863.917V289.354H860.509V294.938H869.031V272.601H860.509Z" fill="#00B0FF"/>
<path d="M869.031 381.497H860.508V403.835H869.031V381.497Z" fill="#00B0FF"/>
<path d="M860.509 345.198V350.782H863.917V361.951H860.509V367.537H869.031V345.198H860.509Z" fill="#00B0FF"/>
<path d="M869.031 454.095H860.508V476.433H869.031V454.095Z" fill="#00B0FF"/>
<path d="M860.509 417.796V423.381H863.917V434.55H860.509V440.134H869.031V417.796H860.509Z" fill="#00B0FF"/>
<path d="M869.031 526.693H860.508V549.031H869.031V526.693Z" fill="#00B0FF"/>
<path d="M869.031 621.629H860.508V643.967H869.031V621.629Z" fill="#00B0FF"/>
<path d="M860.509 490.395V495.978H863.917V507.147H860.509V512.733H869.031V490.395H860.509Z" fill="#00B0FF"/>
<path d="M860.509 660.721V666.305H863.917V677.474H860.509V683.057H869.031V660.721H860.509Z" fill="#00B0FF"/>
<path d="M741.188 621.63V627.213H744.597V638.383H741.188V643.966H749.711V621.63H741.188Z" fill="#00B0FF"/>
<path d="M741.188 657.929V663.513H744.597V674.682H741.188V680.266H749.711V657.929H741.188Z" fill="#00B0FF"/>
<path d="M696.868 236.302V241.885H700.278V253.055H696.868V258.64H705.392V236.302H696.868Z" fill="#00B0FF"/>
<path d="M696.868 378.706V384.29H700.278V395.459H696.868V401.043H705.392V378.706H696.868Z" fill="#00B0FF"/>
<path d="M696.868 415.004V420.589H700.278V431.758H696.868V437.342H705.392V415.004H696.868Z" fill="#00B0FF"/>
<path d="M696.868 487.603V493.186H700.278V504.356H696.868V509.939H705.392V487.603H696.868Z" fill="#00B0FF"/>
<path d="M696.868 590.914V596.499H700.278V607.669H696.868V613.252H705.392V590.914H696.868Z" fill="#00B0FF"/>
<path d="M696.868 621.63V627.213H700.278V638.383H696.868V643.966H705.392V621.63H696.868Z" fill="#00B0FF"/>
<path d="M794.03 65.9753H785.507V88.3132H794.03V65.9753Z" fill="#00B0FF"/>
<path d="M794.03 102.274H785.507V124.612H794.03V102.274Z" fill="#00B0FF"/>
<path d="M794.03 141.366H782.097V144.158H794.03V141.366Z" fill="#00B0FF"/>
<path d="M794.03 320.068H782.097V322.861H794.03V320.068Z" fill="#00B0FF"/>
<path d="M794.03 350.783H782.097V353.575H794.03V350.783Z" fill="#00B0FF"/>
<path d="M785.506 166.496V172.08H788.916V183.249H785.506V188.833H794.029V166.496H785.506Z" fill="#00B0FF"/>
<path d="M785.506 236.302V241.885H788.916V253.055H785.506V258.64H794.029V236.302H785.506Z" fill="#00B0FF"/>
<path d="M785.506 378.706V384.29H788.916V395.459H785.506V401.043H794.029V378.706H785.506Z" fill="#00B0FF"/>
<path d="M891.19 308.899H882.668V331.237H891.19V308.899Z" fill="#00B0FF"/>
<path d="M891.19 345.198H882.668V367.536H891.19V345.198Z" fill="#00B0FF"/>
<path d="M891.19 384.29H879.258V387.082H891.19V384.29Z" fill="#00B0FF"/>
<path d="M891.19 562.992H879.258V565.785H891.19V562.992Z" fill="#00B0FF"/>
<path d="M891.19 593.707H879.258V596.499H891.19V593.707Z" fill="#00B0FF"/>
<path d="M882.667 409.42V415.004H886.077V426.173H882.667V431.758H891.19V409.42H882.667Z" fill="#00B0FF"/>
<path d="M882.667 479.225V484.811H886.077V495.978H882.667V501.564H891.19V479.225H882.667Z" fill="#00B0FF"/>
<path d="M882.667 621.63V627.213H886.077V638.383H882.667V643.966H891.19V621.63H882.667Z" fill="#00B0FF"/>
<path d="M521.816 677.507V771.594L529.548 829.494C529.548 829.494 528.443 865.681 529.548 876.537C530.652 887.394 528.443 905.487 521.816 905.487C515.188 905.487 511.875 932.628 511.875 932.628C511.875 932.628 509.665 943.484 504.143 945.293C498.62 947.103 498.62 945.293 498.62 945.293L494.202 963.387L402.523 1062.9L420.196 1135.28C420.196 1135.28 447.81 1118.99 450.019 1113.56C452.228 1108.14 471.006 1120.8 471.006 1108.14C471.006 1095.47 474.319 1062.9 480.947 1061.09C487.574 1059.28 542.802 1017.67 542.802 1017.67C542.802 1017.67 571.521 965.196 573.73 945.293C575.939 925.39 585.88 869.3 585.88 869.3L613.494 945.293V1097.28L609.076 1178.7L657.677 1167.85C657.677 1167.85 653.259 1117.18 657.677 1109.95C662.095 1102.71 668.723 1015.86 664.304 1005C659.886 994.146 666.514 945.293 664.304 938.056C662.095 930.818 663.2 878.347 657.677 863.872C652.154 849.397 619.017 701.029 619.017 701.029L521.816 677.507Z" fill="#2F2E41"/>
<path d="M610.092 1170.69C610.092 1170.69 593.524 1215.92 604.569 1221.35C615.615 1226.78 636.602 1221.35 638.811 1221.35C641.02 1221.35 680.784 1223.16 680.784 1223.16C680.784 1223.16 707.294 1214.11 707.294 1201.45C707.294 1188.78 690.725 1188.78 685.202 1186.97C679.679 1185.16 645.438 1163.45 645.438 1163.45L610.092 1170.69Z" fill="#2F2E41"/>
<path d="M407.595 1064.94C407.595 1064.94 375.671 1058.02 377.02 1076.78C378.37 1095.54 389.752 1124.93 390.63 1128.25C391.225 1130.5 398.201 1158.97 402.643 1177.11C405.853 1190.41 410.676 1202.51 416.82 1212.67C421.163 1219.78 425.895 1225.48 428.999 1223.28C436.094 1218.24 429.509 1193.34 428.327 1184.32C427.146 1175.3 425.699 1115.2 425.699 1115.2L407.595 1064.94Z" fill="#2F2E41"/>
<path d="M629.511 378.057L664.857 244.164C664.857 244.164 661.543 231.499 653.811 233.308C653.811 233.308 643.318 188.979 623.436 188.979C623.436 188.979 593.612 161.838 584.776 188.979C584.776 188.979 565.998 216.119 567.103 241.45C568.207 266.781 569.312 284.875 569.312 284.875C569.312 284.875 551.639 288.494 554.953 302.969C558.266 317.444 559.371 317.444 554.953 322.872L550.534 328.3C550.534 328.3 458.855 464.002 509.665 663.032L514.084 693.792V722.741C514.084 722.741 625.645 724.551 625.645 722.741C625.645 720.932 623.436 710.076 627.854 702.838C632.272 695.601 632.272 684.745 632.272 684.745C632.272 684.745 627.854 648.557 630.063 637.701C632.272 626.845 633.377 579.802 628.959 568.945C624.54 558.089 626.749 471.24 626.749 471.24L636.691 440.48L633.377 422.387L630.063 404.293L629.511 378.057Z" fill="#8985A8"/>
<path opacity="0.1" d="M620.122 740.835C620.122 740.835 606.867 681.126 607.972 670.27C609.076 659.414 605.763 637.701 605.763 637.701L601.344 491.143C601.344 491.143 620.122 360.868 578.148 339.156C578.148 339.156 567.528 346.747 558.825 371.176C550.22 377.455 539.778 393.345 537.279 433.243C532.861 503.808 552.743 684.745 562.685 715.504C572.626 746.263 579.253 767.975 579.253 767.975L589.643 760.411C590.072 761.805 590.299 762.547 590.299 762.547L620.122 740.835Z" fill="black"/>
<path d="M626.197 361.773C628.027 361.773 629.511 359.343 629.511 356.345C629.511 353.347 628.027 350.917 626.197 350.917C624.367 350.917 622.883 353.347 622.883 356.345C622.883 359.343 624.367 361.773 626.197 361.773Z" fill="#F2F2F2"/>
<path d="M627.302 356.345H625.092V441.385H627.302V356.345Z" fill="#3F3D56"/>
<path d="M586.433 747.168L595.269 777.927C595.269 777.927 615.151 767.071 615.151 761.643C615.151 756.215 606.315 732.693 606.315 732.693L586.433 747.168Z" fill="#FFB8B8"/>
<path d="M573.73 339.156C573.73 339.156 548.325 357.25 543.907 427.815C539.489 498.38 559.371 679.317 569.312 710.076C579.253 740.835 585.88 762.547 585.88 762.547L615.704 740.835C615.704 740.835 602.449 681.126 603.554 670.27C604.658 659.414 601.344 637.701 601.344 637.701L596.926 491.143C596.926 491.143 615.704 360.868 573.73 339.156Z" fill="#8985A8"/>
</g>
<defs>
<filter id="filter0_d" x="0" y="0" width="1159" height="1291" filterUnits="userSpaceOnUse" color-interpolation-filters="sRGB">
<feFlood flood-opacity="0" result="BackgroundImageFix"/>
<feColorMatrix in="SourceAlpha" type="matrix" values="0 0 0 0 0 0 0 0 0 0 0 0 0 0 0 0 0 0 127 0"/>
<feOffset dy="4"/>
<feGaussianBlur stdDeviation="2"/>
<feColorMatrix type="matrix" values="0 0 0 0 0 0 0 0 0 0 0 0 0 0 0 0 0 0 0.25 0"/>
<feBlend mode="normal" in2="BackgroundImageFix" result="effect1_dropShadow"/>
<feBlend mode="normal" in="SourceGraphic" in2="effect1_dropShadow" result="shape"/>
</filter>
</defs>
</svg>
